<svg id="svg" version="1.1" xmlns="http://www.w3.org/2000/svg" xmlns:xlink="http://www.w3.org/1999/xlink" width="400" height="400" viewBox="0, 0, 400,400"><g id="svgg"><path id="path0" d="M40.900 40.486 L 40.000 41.452 40.019 68.626 C 40.037 93.445,40.098 95.921,40.724 97.200 L 41.409 98.600 53.438 98.600 C 64.971 98.600,65.549 98.564,67.434 97.720 C 68.515 97.235,70.503 96.455,71.850 95.984 C 73.906 95.267,74.689 94.696,76.712 92.436 C 80.194 88.546,80.117 89.020,80.298 70.298 C 80.479 51.592,80.349 50.297,78.056 47.977 C 77.255 47.167,76.300 45.952,75.933 45.277 C 75.566 44.602,74.576 43.678,73.733 43.223 C 72.890 42.769,71.736 42.025,71.169 41.572 C 69.393 40.151,67.349 39.925,54.400 39.720 L 41.800 39.520 40.900 40.486 M100.870 40.526 L 100.000 41.452 100.018 64.626 C 100.031 81.803,100.161 88.080,100.518 88.883 C 101.517 91.126,105.896 95.106,108.319 95.973 C 109.574 96.421,111.140 97.088,111.800 97.454 C 115.348 99.424,115.237 99.400,120.800 99.384 C 126.085 99.368,126.253 99.340,128.699 98.079 C 130.073 97.370,132.172 96.425,133.363 95.980 C 134.711 95.475,135.791 94.760,136.224 94.085 C 136.607 93.488,137.437 92.550,138.070 92.000 C 138.774 91.387,139.603 89.931,140.210 88.241 L 141.200 85.483 141.200 63.783 L 141.200 42.083 139.786 40.841 C 138.093 39.355,137.981 39.343,136.870 40.526 C 136.002 41.450,136.000 41.487,135.979 61.226 C 135.953 86.785,136.072 85.760,132.757 88.979 C 127.434 94.147,112.924 93.896,108.211 88.553 C 105.129 85.060,105.264 86.224,105.230 62.941 L 105.200 42.083 103.786 40.841 C 102.093 39.355,101.981 39.343,100.870 40.526 M196.600 40.171 C 194.856 40.954,192.223 43.921,191.426 46.000 C 191.047 46.990,190.404 48.160,189.999 48.600 C 189.593 49.040,188.600 50.660,187.791 52.200 C 186.983 53.740,186.002 55.360,185.611 55.800 C 185.221 56.240,184.330 57.815,183.630 59.300 C 182.344 62.032,181.873 62.488,181.456 61.401 C 181.329 61.072,180.390 60.397,179.368 59.901 C 177.738 59.110,177.321 58.624,175.966 55.930 C 175.116 54.242,174.217 52.734,173.966 52.579 C 173.716 52.424,173.075 51.313,172.543 50.111 C 172.012 48.908,171.050 47.266,170.406 46.462 C 169.763 45.658,168.941 44.280,168.580 43.400 C 167.166 39.954,165.044 39.107,162.359 40.916 L 161.000 41.832 160.895 67.416 C 160.767 98.411,160.803 98.737,164.154 97.357 C 167.203 96.100,167.200 96.122,167.200 77.566 C 167.200 60.884,167.198 60.907,169.031 58.928 C 170.189 57.680,170.293 57.753,171.674 60.800 C 172.123 61.790,173.088 63.230,173.819 64.000 C 174.550 64.770,175.523 66.411,175.982 67.646 C 177.758 72.425,181.855 73.334,184.264 69.483 C 184.843 68.557,185.799 67.245,186.388 66.566 C 186.977 65.888,187.696 64.486,187.986 63.450 C 188.331 62.219,188.921 61.261,189.693 60.684 C 190.988 59.714,191.969 58.730,193.166 57.200 C 195.245 54.543,195.380 55.650,195.600 77.205 L 195.800 96.783 196.923 97.891 L 198.047 99.000 198.813 98.068 C 200.320 96.236,200.395 94.797,200.398 67.881 L 200.400 41.562 199.342 40.581 C 198.123 39.451,198.181 39.460,196.600 40.171 M256.600 40.171 C 254.856 40.954,252.223 43.921,251.426 46.000 C 251.047 46.990,250.404 48.160,249.999 48.600 C 249.593 49.040,248.600 50.660,247.791 52.200 C 246.983 53.740,246.002 55.360,245.611 55.800 C 245.221 56.240,244.330 57.815,243.630 59.300 C 242.344 62.032,241.873 62.488,241.456 61.401 C 241.329 61.072,240.390 60.397,239.368 59.901 C 237.738 59.110,237.321 58.624,235.966 55.930 C 235.116 54.242,234.217 52.734,233.966 52.579 C 233.716 52.424,233.075 51.313,232.543 50.111 C 232.012 48.908,231.050 47.266,230.406 46.462 C 229.763 45.658,228.941 44.280,228.580 43.400 C 227.166 39.954,225.044 39.107,222.359 40.916 L 221.000 41.832 220.895 67.416 C 220.767 98.411,220.803 98.737,224.154 97.357 C 227.203 96.100,227.200 96.122,227.200 77.566 C 227.200 60.884,227.198 60.907,229.031 58.928 C 230.189 57.680,230.293 57.753,231.674 60.800 C 232.123 61.790,233.088 63.230,233.819 64.000 C 234.550 64.770,235.523 66.411,235.982 67.646 C 237.758 72.425,241.855 73.334,244.264 69.483 C 244.843 68.557,245.799 67.245,246.388 66.566 C 246.977 65.888,247.696 64.486,247.986 63.450 C 248.331 62.219,248.921 61.261,249.693 60.684 C 250.988 59.714,251.969 58.730,253.166 57.200 C 255.245 54.543,255.380 55.650,255.600 77.205 L 255.800 96.783 256.923 97.891 L 258.047 99.000 258.813 98.068 C 260.320 96.236,260.395 94.797,260.398 67.881 L 260.400 41.562 259.342 40.581 C 258.123 39.451,258.181 39.460,256.600 40.171 M316.870 40.526 C 316.222 41.215,315.998 41.955,315.994 43.426 C 315.983 46.781,315.035 49.948,313.667 51.198 C 312.996 51.810,312.185 52.941,311.863 53.710 C 311.542 54.479,310.644 55.687,309.867 56.393 C 309.091 57.100,307.980 58.651,307.397 59.841 C 306.815 61.031,306.015 62.178,305.619 62.390 C 305.223 62.602,304.314 63.688,303.598 64.803 C 302.882 65.919,302.184 66.771,302.048 66.696 C 301.912 66.621,300.804 66.093,299.587 65.523 C 297.786 64.680,297.177 64.125,296.314 62.539 C 295.731 61.467,294.702 60.182,294.027 59.683 C 293.353 59.185,292.535 58.141,292.211 57.364 C 291.886 56.587,290.822 55.017,289.846 53.874 C 286.750 50.250,284.800 46.373,284.800 43.840 C 284.800 41.700,283.604 40.000,282.100 40.000 C 280.128 40.000,279.502 49.647,281.330 51.869 C 281.842 52.491,282.939 54.035,283.769 55.300 C 284.599 56.565,285.416 57.600,285.586 57.600 C 285.755 57.600,286.386 58.344,286.988 59.254 C 287.590 60.163,288.748 61.648,289.561 62.554 C 290.374 63.459,291.372 64.964,291.780 65.898 C 292.187 66.832,293.142 68.071,293.902 68.651 C 294.663 69.231,295.521 70.270,295.809 70.961 C 296.098 71.651,296.709 72.555,297.167 72.970 C 297.969 73.696,298.000 74.100,298.000 83.716 C 298.000 94.850,298.208 96.179,300.164 97.519 C 303.114 99.540,303.345 98.680,303.594 84.716 L 303.800 73.232 305.458 71.516 C 306.370 70.572,307.518 68.990,308.009 68.000 C 308.500 67.010,309.644 65.346,310.551 64.303 C 314.219 60.083,315.121 58.947,315.711 57.800 C 316.051 57.140,316.902 56.060,317.602 55.400 C 320.093 53.053,321.200 50.115,321.200 45.853 L 321.200 42.083 319.786 40.841 C 318.093 39.355,317.981 39.343,316.870 40.526 M67.241 46.050 C 67.988 46.619,69.333 47.458,70.229 47.914 C 71.960 48.796,74.524 51.621,75.195 53.388 C 75.722 54.773,75.729 80.586,75.203 83.795 C 74.879 85.774,74.572 86.401,73.436 87.395 C 72.680 88.058,71.779 89.172,71.435 89.872 C 71.091 90.571,70.492 91.235,70.104 91.348 C 65.430 92.705,49.094 92.725,46.800 91.377 L 45.400 90.555 45.400 69.307 C 45.400 42.409,44.208 44.745,57.841 44.915 C 65.802 45.014,65.895 45.025,67.241 46.050 M16.300 183.904 L 0.000 184.009 0.000 200.004 L 0.000 216.000 16.200 216.001 C 25.110 216.001,107.820 216.001,200.000 216.001 C 292.180 216.001,374.890 216.001,383.800 216.001 L 400.000 216.000 400.000 200.000 L 400.000 184.000 383.900 183.999 C 375.045 183.999,292.380 183.954,200.200 183.899 C 108.020 183.845,25.265 183.847,16.300 183.904 M40.747 236.204 C 39.480 236.892,39.068 237.806,39.586 238.774 C 40.011 239.567,42.280 240.653,42.679 240.254 C 42.819 240.114,42.661 240.000,42.329 240.000 C 40.499 240.000,39.920 237.636,41.454 236.429 C 42.661 235.479,42.296 235.363,40.747 236.204 M140.747 236.204 C 139.480 236.892,139.068 237.806,139.586 238.774 C 140.011 239.567,142.280 240.653,142.679 240.254 C 142.819 240.114,142.661 240.000,142.329 240.000 C 140.499 240.000,139.920 237.636,141.454 236.429 C 142.661 235.479,142.296 235.363,140.747 236.204 M264.582 236.582 C 263.579 237.585,263.397 238.860,263.981 240.800 C 264.259 241.726,264.305 241.681,264.593 240.200 C 265.026 237.979,265.455 237.277,266.926 236.380 L 268.200 235.603 266.882 235.601 C 266.014 235.601,265.228 235.936,264.582 236.582 M70.158 236.760 C 68.571 237.728,68.412 239.786,68.550 257.468 C 68.656 270.891,68.639 270.787,70.827 271.549 C 71.872 271.914,71.970 271.883,71.686 271.280 C 71.121 270.086,71.413 237.308,71.994 236.607 C 72.730 235.720,71.726 235.804,70.158 236.760 M196.582 236.982 L 195.600 237.964 195.600 254.000 L 195.600 270.036 196.582 271.018 C 197.122 271.558,197.744 272.000,197.964 272.000 C 198.184 272.000,197.942 271.579,197.428 271.064 L 196.492 270.128 196.492 254.000 L 196.492 237.872 197.428 236.936 C 197.942 236.421,198.184 236.000,197.964 236.000 C 197.744 236.000,197.122 236.442,196.582 236.982 M230.138 236.772 C 228.505 237.768,228.364 239.519,228.500 257.039 C 228.608 270.916,228.584 270.768,230.827 271.549 C 231.872 271.914,231.970 271.883,231.686 271.280 C 231.121 270.086,231.413 237.308,231.994 236.607 C 232.734 235.716,231.723 235.806,230.138 236.772 M298.158 236.760 C 296.571 237.728,296.412 239.786,296.550 257.468 C 296.656 270.891,296.639 270.787,298.827 271.549 C 299.872 271.914,299.970 271.883,299.686 271.280 C 299.121 270.086,299.413 237.308,299.994 236.607 C 300.730 235.720,299.726 235.804,298.158 236.760 M126.000 239.597 C 126.000 242.535,119.403 250.756,117.454 250.246 C 116.760 250.064,116.738 250.109,117.264 250.635 C 118.038 251.410,118.810 251.059,119.807 249.482 C 120.251 248.779,121.122 247.960,121.744 247.663 C 122.365 247.365,123.235 246.509,123.676 245.761 C 124.118 245.012,124.627 244.400,124.809 244.400 C 124.990 244.400,125.692 243.934,126.369 243.364 C 127.949 242.035,128.280 237.600,126.800 237.600 C 126.107 237.600,126.000 237.867,126.000 239.597 M44.800 240.695 C 47.688 241.040,47.589 240.513,47.695 256.162 L 47.789 270.200 47.900 256.231 C 48.026 240.331,48.024 240.321,44.830 240.464 L 43.400 240.528 44.800 240.695 M144.800 240.695 C 147.688 241.040,147.589 240.513,147.695 256.162 L 147.789 270.200 147.900 256.231 C 148.026 240.331,148.024 240.321,144.830 240.464 L 143.400 240.528 144.800 240.695 M283.727 243.600 L 284.600 246.000 283.727 248.400 C 282.764 251.049,283.115 251.647,284.267 249.320 C 284.670 248.505,285.540 247.546,286.200 247.187 C 286.860 246.828,287.400 246.294,287.400 246.000 C 287.400 245.706,286.860 245.172,286.200 244.813 C 285.540 244.454,284.670 243.495,284.267 242.680 C 283.115 240.353,282.764 240.951,283.727 243.600 M104.000 245.330 C 104.000 246.448,105.385 247.797,106.900 248.155 C 107.505 248.298,108.000 248.607,108.000 248.841 C 108.000 249.074,108.900 250.171,110.000 251.276 C 112.485 253.775,112.484 254.198,109.984 256.857 C 108.875 258.035,107.750 259.232,107.484 259.515 C 107.218 259.798,106.415 260.489,105.700 261.050 C 103.912 262.455,103.789 264.313,105.552 263.302 C 106.186 262.938,107.014 262.065,107.393 261.361 C 107.772 260.658,108.687 259.756,109.427 259.357 C 110.167 258.959,110.983 258.123,111.241 257.500 C 111.500 256.877,112.357 255.834,113.147 255.183 L 114.582 254.000 113.147 252.817 C 112.357 252.166,111.487 251.093,111.214 250.434 C 110.887 249.645,110.268 249.087,109.405 248.802 C 108.683 248.563,107.306 247.475,106.346 246.384 C 104.390 244.160,104.000 243.985,104.000 245.330 M263.801 252.100 C 263.403 254.693,263.918 258.249,264.482 256.800 C 264.696 256.250,264.872 254.990,264.872 254.000 C 264.872 250.992,264.164 249.736,263.801 252.100 M277.117 258.565 C 278.401 259.768,279.236 261.001,279.743 262.438 C 280.670 265.073,283.600 268.265,283.600 266.642 C 283.600 265.958,283.054 265.206,281.825 264.199 C 280.211 262.876,280.026 262.540,279.778 260.473 C 279.437 257.639,278.747 256.800,276.755 256.800 L 275.234 256.800 277.117 258.565 M117.280 257.680 C 116.574 258.386,116.696 258.887,117.509 258.629 C 119.031 258.146,125.940 265.859,126.080 268.196 C 126.269 271.343,127.600 271.329,127.600 268.180 C 127.600 265.736,124.143 261.388,121.576 260.604 C 120.306 260.215,119.195 259.226,118.764 258.100 C 118.377 257.088,117.983 256.977,117.280 257.680 " stroke="none" fill="#ef2925" fill-rule="evenodd"></path><path id="path1" d="M41.454 236.429 C 39.348 238.085,40.650 239.996,44.096 240.306 C 45.456 240.429,46.518 240.786,47.100 241.318 L 48.000 242.139 48.000 256.461 L 48.000 270.782 49.015 271.447 C 49.984 272.082,50.074 272.070,51.015 271.186 L 52.000 270.261 52.000 255.976 L 52.000 241.691 53.360 241.046 C 54.109 240.691,55.522 240.400,56.501 240.400 C 60.166 240.400,62.013 238.115,59.641 236.516 C 57.636 235.165,43.149 235.095,41.454 236.429 M72.052 236.625 C 71.140 237.784,71.075 238.194,71.448 240.448 L 71.688 241.895 73.544 241.298 C 74.838 240.881,78.135 240.622,84.428 240.444 C 94.077 240.169,95.600 239.836,95.600 238.000 C 95.600 236.073,94.192 235.810,83.171 235.671 L 72.904 235.541 72.052 236.625 M141.454 236.429 C 139.348 238.085,140.650 239.996,144.096 240.306 C 145.456 240.429,146.518 240.786,147.100 241.318 L 148.000 242.139 148.000 256.461 L 148.000 270.782 149.015 271.447 C 149.984 272.082,150.074 272.070,151.015 271.186 L 152.000 270.261 152.000 255.976 L 152.000 241.691 153.360 241.046 C 154.109 240.691,155.522 240.400,156.501 240.400 C 158.424 240.400,161.000 239.026,161.000 238.000 C 161.000 235.563,144.265 234.218,141.454 236.429 M232.052 236.625 C 231.140 237.784,231.075 238.194,231.448 240.448 L 231.688 241.895 233.544 241.298 C 234.838 240.881,238.135 240.622,244.428 240.444 C 254.077 240.169,255.600 239.836,255.600 238.000 C 255.600 236.073,254.192 235.810,243.171 235.671 L 232.904 235.541 232.052 236.625 M266.926 236.380 C 264.680 237.749,264.003 242.847,264.693 253.200 C 264.745 253.970,264.684 258.113,264.558 262.406 C 264.337 269.963,264.356 270.236,265.165 270.968 C 267.048 272.673,267.600 271.127,267.600 264.147 L 267.600 258.018 268.690 257.309 C 269.585 256.727,270.530 256.616,273.948 256.690 C 278.988 256.800,279.390 257.055,279.766 260.382 C 280.011 262.547,280.171 262.843,281.816 264.192 C 282.881 265.064,283.600 265.987,283.600 266.480 C 283.600 267.897,284.489 270.357,285.251 271.046 C 286.068 271.785,288.000 270.954,288.000 269.863 C 288.000 268.168,286.679 265.168,285.591 264.393 C 284.878 263.886,284.400 263.187,284.400 262.651 C 284.400 262.159,283.854 260.895,283.186 259.842 L 281.972 257.928 283.345 256.408 C 284.100 255.572,284.839 254.509,284.986 254.044 C 285.133 253.580,285.400 253.200,285.579 253.200 C 287.424 253.200,289.271 247.938,287.906 246.573 C 287.444 246.110,284.958 247.930,284.311 249.203 C 283.228 251.337,282.434 251.570,276.200 251.585 C 271.650 251.596,270.338 251.468,269.200 250.899 L 267.800 250.200 267.800 246.000 L 267.800 241.800 269.200 241.101 C 270.338 240.532,271.650 240.404,276.200 240.415 C 282.434 240.430,283.228 240.663,284.311 242.797 C 284.958 244.070,287.444 245.890,287.906 245.427 C 288.833 244.500,288.413 241.339,287.212 240.200 C 286.516 239.540,285.390 238.416,284.710 237.701 C 282.999 235.904,281.526 235.605,274.400 235.604 C 268.964 235.603,268.043 235.699,266.926 236.380 M300.052 236.625 C 299.140 237.784,299.075 238.194,299.448 240.448 L 299.688 241.895 301.544 241.298 C 302.838 240.881,306.135 240.622,312.428 240.444 C 322.077 240.169,323.600 239.836,323.600 238.000 C 323.600 236.073,322.192 235.810,311.171 235.671 L 300.904 235.541 300.052 236.625 M197.045 237.300 C 196.195 238.634,196.195 269.366,197.045 270.700 C 198.974 273.728,200.400 271.059,200.400 264.419 C 200.400 255.842,200.299 255.919,211.435 256.091 L 218.515 256.200 219.318 257.277 C 220.015 258.211,220.148 259.154,220.315 264.364 C 220.535 271.212,221.101 272.677,222.850 270.928 C 223.652 270.125,223.672 269.716,223.672 254.000 C 223.672 238.284,223.652 237.875,222.850 237.072 C 220.981 235.203,220.400 236.844,220.400 243.987 L 220.400 250.250 219.299 251.305 C 217.162 253.353,203.239 253.239,201.157 251.157 C 200.480 250.480,200.400 249.748,200.400 244.200 C 200.400 236.923,199.052 234.151,197.045 237.300 M104.662 237.531 C 102.340 240.097,105.464 247.444,109.462 248.818 C 110.263 249.093,110.905 249.688,111.218 250.442 C 111.489 251.097,112.357 252.166,113.147 252.817 L 114.582 254.000 113.147 255.183 C 112.357 255.834,111.500 256.877,111.241 257.500 C 110.983 258.123,110.167 258.959,109.427 259.357 C 108.687 259.756,107.772 260.658,107.393 261.361 C 107.014 262.065,106.213 262.922,105.613 263.267 C 103.683 264.374,103.313 269.216,105.034 270.830 L 106.068 271.800 106.834 270.856 C 107.380 270.183,107.600 269.284,107.600 267.729 C 107.600 265.078,107.995 264.265,109.606 263.598 C 110.357 263.287,111.148 262.486,111.621 261.558 C 112.270 260.287,112.741 259.930,114.425 259.430 C 115.538 259.099,116.768 258.434,117.159 257.951 C 117.872 257.071,118.800 257.186,118.800 258.154 C 118.800 258.844,120.383 260.242,121.576 260.605 C 124.075 261.366,127.547 265.686,127.678 268.197 C 127.792 270.382,127.877 270.562,128.965 270.923 C 131.557 271.784,132.253 266.890,129.856 264.654 C 129.117 263.964,128.394 262.905,128.249 262.300 C 128.085 261.618,127.385 260.822,126.404 260.202 C 125.534 259.653,124.548 258.673,124.212 258.023 C 123.876 257.373,122.971 256.361,122.200 255.773 C 120.401 254.401,120.435 253.570,122.365 251.785 C 123.225 250.989,124.027 249.945,124.148 249.466 C 124.280 248.937,125.043 248.280,126.083 247.797 C 127.326 247.220,127.912 246.655,128.204 245.750 C 128.426 245.063,129.191 243.956,129.904 243.290 C 132.286 241.064,131.462 236.502,128.800 237.179 C 127.893 237.409,127.789 237.655,127.677 239.815 C 127.550 242.275,126.727 243.715,125.166 244.211 C 124.777 244.334,124.102 245.040,123.666 245.778 C 123.230 246.517,122.365 247.365,121.744 247.663 C 121.122 247.960,120.251 248.779,119.807 249.482 C 118.670 251.281,118.105 251.375,116.562 250.021 C 115.819 249.368,114.491 248.640,113.612 248.403 C 112.658 248.146,111.830 247.615,111.558 247.086 C 111.307 246.599,110.314 245.464,109.351 244.564 C 107.677 243.000,107.600 242.826,107.600 240.637 C 107.600 237.082,106.306 235.715,104.662 237.531 M71.435 250.964 C 71.312 251.424,71.211 252.790,71.211 254.000 C 71.211 255.210,71.312 256.576,71.435 257.036 L 71.660 257.873 73.930 257.096 C 75.179 256.668,77.550 256.221,79.200 256.101 C 82.381 255.871,84.000 255.162,84.000 254.000 C 84.000 252.838,82.381 252.129,79.200 251.899 C 77.550 251.779,75.179 251.332,73.930 250.904 L 71.660 250.127 71.435 250.964 M231.435 250.964 C 231.312 251.424,231.211 252.790,231.211 254.000 C 231.211 255.210,231.312 256.576,231.435 257.036 L 231.660 257.873 233.930 257.096 C 235.179 256.668,237.550 256.221,239.200 256.101 C 242.381 255.871,244.000 255.162,244.000 254.000 C 244.000 252.838,242.381 252.129,239.200 251.899 C 237.550 251.779,235.179 251.332,233.930 250.904 L 231.660 250.127 231.435 250.964 M299.435 250.964 C 299.312 251.424,299.211 252.790,299.211 254.000 C 299.211 255.210,299.312 256.576,299.435 257.036 L 299.660 257.873 301.930 257.096 C 303.179 256.668,305.550 256.221,307.200 256.101 C 310.381 255.871,312.000 255.162,312.000 254.000 C 312.000 252.838,310.381 252.129,307.200 251.899 C 305.550 251.779,303.179 251.332,301.930 250.904 L 299.660 250.127 299.435 250.964 M71.435 266.964 C 70.071 272.046,70.952 272.519,81.626 272.432 C 92.670 272.341,95.200 271.882,95.200 269.965 C 95.200 268.538,93.696 268.252,84.800 267.982 C 77.698 267.767,75.804 267.583,73.930 266.925 L 71.660 266.127 71.435 266.964 M231.435 266.964 C 230.071 272.046,230.952 272.519,241.626 272.432 C 252.670 272.341,255.200 271.882,255.200 269.965 C 255.200 268.538,253.696 268.252,244.800 267.982 C 237.698 267.767,235.804 267.583,233.930 266.925 L 231.660 266.127 231.435 266.964 M299.435 266.964 C 298.071 272.046,298.952 272.519,309.626 272.432 C 320.670 272.341,323.200 271.882,323.200 269.965 C 323.200 268.538,321.696 268.252,312.800 267.982 C 305.698 267.767,303.804 267.583,301.930 266.925 L 299.660 266.127 299.435 266.964 " stroke="none" fill="#294066" fill-rule="evenodd"></path><path id="path2" d="M0.000 92.004 L 0.000 184.009 16.300 183.904 C 30.581 183.813,32.575 183.726,32.400 183.200 C 32.290 182.870,32.154 149.133,32.098 108.228 L 31.996 33.856 32.868 32.928 L 33.739 32.000 200.000 32.000 L 366.261 32.000 367.132 32.928 L 368.004 33.856 367.902 108.228 C 367.846 149.133,367.710 182.870,367.600 183.200 C 367.425 183.726,369.419 183.813,383.700 183.904 L 400.000 184.009 400.000 92.004 L 400.000 0.000 200.000 0.000 L 0.000 0.000 0.000 92.004 M161.023 40.889 C 160.474 41.672,160.400 44.936,160.400 68.229 C 160.400 95.007,160.475 96.520,161.871 98.000 C 162.260 98.412,162.212 98.097,161.719 97.000 C 161.054 95.521,160.991 93.385,160.881 68.800 L 160.761 42.200 162.066 41.100 C 163.239 40.110,163.283 40.000,162.508 40.000 C 162.033 40.000,161.365 40.400,161.023 40.889 M221.023 40.889 C 220.474 41.672,220.400 44.936,220.400 68.229 C 220.400 95.007,220.475 96.520,221.871 98.000 C 222.260 98.412,222.212 98.097,221.719 97.000 C 221.054 95.521,220.991 93.385,220.881 68.800 L 220.761 42.200 222.066 41.100 C 223.239 40.110,223.283 40.000,222.508 40.000 C 222.033 40.000,221.365 40.400,221.023 40.889 M194.369 40.842 C 193.800 41.051,193.041 41.843,192.676 42.610 C 191.833 44.377,191.877 44.363,194.000 42.200 C 194.972 41.210,195.684 40.414,195.583 40.432 C 195.482 40.449,194.936 40.634,194.369 40.842 M254.369 40.842 C 253.800 41.051,253.041 41.843,252.676 42.610 C 251.833 44.377,251.877 44.363,254.000 42.200 C 254.972 41.210,255.684 40.414,255.583 40.432 C 255.482 40.449,254.936 40.634,254.369 40.842 M39.789 68.200 C 39.789 82.940,39.839 88.912,39.900 81.471 C 39.961 74.030,39.961 61.970,39.900 54.671 C 39.839 47.372,39.789 53.460,39.789 68.200 M99.787 64.400 C 99.787 77.050,99.838 82.225,99.900 75.900 C 99.962 69.575,99.962 59.225,99.900 52.900 C 99.838 46.575,99.787 51.750,99.787 64.400 M135.786 61.800 C 135.786 73.020,135.837 77.668,135.900 72.128 C 135.962 66.588,135.962 57.408,135.900 51.728 C 135.837 46.048,135.786 50.580,135.786 61.800 M280.076 45.867 C 279.993 50.735,280.597 53.004,282.400 54.600 C 282.897 55.040,283.751 56.104,284.297 56.964 C 284.844 57.824,285.796 58.954,286.414 59.473 C 287.032 59.993,287.911 61.190,288.368 62.133 C 289.218 63.890,291.849 66.356,291.323 64.904 C 291.183 64.517,290.396 63.459,289.575 62.554 C 288.754 61.648,287.590 60.163,286.988 59.254 C 286.386 58.344,285.755 57.600,285.586 57.600 C 285.416 57.600,284.603 56.565,283.779 55.300 C 282.954 54.035,281.902 52.581,281.440 52.070 C 280.716 51.268,280.569 50.466,280.376 46.270 L 280.151 41.400 280.076 45.867 M315.724 43.800 C 315.726 45.120,315.801 45.612,315.890 44.893 C 315.979 44.174,315.977 43.094,315.886 42.493 C 315.795 41.892,315.722 42.480,315.724 43.800 M190.480 46.292 C 189.754 47.269,188.709 49.087,188.158 50.334 C 187.607 51.580,186.733 53.050,186.215 53.600 C 185.215 54.663,183.851 57.584,184.195 57.928 C 184.308 58.041,184.400 57.937,184.400 57.697 C 184.400 57.458,184.828 56.753,185.351 56.131 C 185.873 55.509,186.967 53.740,187.781 52.200 C 188.596 50.660,189.591 49.040,189.993 48.600 C 190.671 47.857,192.142 44.778,191.905 44.597 C 191.847 44.553,191.206 45.316,190.480 46.292 M250.480 46.292 C 249.754 47.269,248.709 49.087,248.158 50.334 C 247.607 51.580,246.733 53.050,246.215 53.600 C 245.215 54.663,243.851 57.584,244.195 57.928 C 244.308 58.041,244.400 57.937,244.400 57.697 C 244.400 57.458,244.828 56.753,245.351 56.131 C 245.873 55.509,246.967 53.740,247.781 52.200 C 248.596 50.660,249.591 49.040,249.993 48.600 C 250.671 47.857,252.142 44.778,251.905 44.597 C 251.847 44.553,251.206 45.316,250.480 46.292 M314.068 49.170 C 312.822 51.574,312.796 51.701,313.668 51.127 C 314.180 50.789,314.832 49.823,315.115 48.980 C 315.988 46.378,315.466 46.473,314.068 49.170 M72.415 50.456 C 73.074 51.697,73.880 52.934,74.206 53.205 C 74.711 53.624,74.800 55.872,74.800 68.245 C 74.800 83.845,74.629 85.309,72.521 87.713 C 71.922 88.397,72.026 88.373,73.144 87.568 C 75.331 85.993,75.358 85.787,75.517 69.800 C 75.682 53.205,75.679 53.182,73.009 50.200 L 71.218 48.200 72.415 50.456 M309.667 55.939 C 307.680 57.773,307.423 58.569,309.343 56.939 C 310.552 55.914,311.820 54.400,311.470 54.400 C 311.395 54.400,310.583 55.092,309.667 55.939 M193.362 56.862 C 193.176 57.162,193.253 57.214,193.583 57.011 C 194.660 56.345,194.788 58.349,194.800 76.000 C 194.807 87.049,194.965 94.436,195.200 94.800 C 195.453 95.192,195.590 88.953,195.594 76.789 C 195.599 60.585,195.519 58.063,194.977 57.289 C 194.285 56.300,193.790 56.169,193.362 56.862 M253.362 56.862 C 253.176 57.162,253.253 57.214,253.583 57.011 C 254.660 56.345,254.788 58.349,254.800 76.000 C 254.807 87.049,254.965 94.436,255.200 94.800 C 255.453 95.192,255.590 88.953,255.594 76.789 C 255.599 60.585,255.519 58.063,254.977 57.289 C 254.285 56.300,253.790 56.169,253.362 56.862 M169.424 58.361 C 169.302 58.559,169.831 59.351,170.601 60.121 C 172.233 61.753,172.313 61.666,171.126 59.554 C 170.246 57.988,169.834 57.698,169.424 58.361 M229.424 58.361 C 229.302 58.559,229.831 59.351,230.601 60.121 C 232.233 61.753,232.313 61.666,231.126 59.554 C 230.246 57.988,229.834 57.698,229.424 58.361 M182.584 59.844 C 181.486 60.979,181.191 62.000,181.960 62.000 C 182.274 62.000,184.175 58.802,183.940 58.666 C 183.863 58.622,183.253 59.152,182.584 59.844 M242.584 59.844 C 241.486 60.979,241.191 62.000,241.960 62.000 C 242.274 62.000,244.175 58.802,243.940 58.666 C 243.863 58.622,243.253 59.152,242.584 59.844 M306.272 60.362 C 305.432 61.373,304.348 62.830,303.862 63.600 C 303.377 64.370,302.579 65.178,302.089 65.395 C 301.598 65.613,301.254 65.962,301.323 66.170 C 301.643 67.130,302.386 66.651,303.740 64.612 C 304.547 63.395,305.379 62.400,305.587 62.400 C 305.981 62.400,308.210 58.855,307.949 58.644 C 307.867 58.578,307.113 59.351,306.272 60.362 M172.711 63.404 C 172.939 63.847,173.486 64.535,173.926 64.933 C 174.367 65.332,174.948 66.191,175.217 66.842 C 175.487 67.493,175.784 67.949,175.877 67.856 C 176.254 67.480,174.818 64.926,173.597 63.800 C 172.673 62.947,172.416 62.833,172.711 63.404 M232.711 63.404 C 232.939 63.847,233.486 64.535,233.926 64.933 C 234.367 65.332,234.948 66.191,235.217 66.842 C 235.487 67.493,235.784 67.949,235.877 67.856 C 236.254 67.480,234.818 64.926,233.597 63.800 C 232.673 62.947,232.416 62.833,232.711 63.404 M176.001 68.846 C 175.999 69.782,177.544 71.602,178.329 71.588 C 178.923 71.577,178.917 71.527,178.273 71.153 C 177.873 70.920,177.198 70.161,176.774 69.465 C 176.318 68.717,176.002 68.464,176.001 68.846 M236.001 68.846 C 235.999 69.782,237.544 71.602,238.329 71.588 C 238.923 71.577,238.917 71.527,238.273 71.153 C 237.873 70.920,237.198 70.161,236.774 69.465 C 236.318 68.717,236.002 68.464,236.001 68.846 M294.648 69.800 C 295.264 70.680,295.820 71.475,295.884 71.567 C 295.948 71.658,296.000 71.526,296.000 71.273 C 296.000 71.020,295.444 70.225,294.764 69.506 L 293.528 68.200 294.648 69.800 M296.346 72.674 C 296.650 73.259,296.800 76.924,296.800 83.787 C 296.800 92.052,296.917 94.307,297.409 95.484 C 298.146 97.248,299.095 96.828,298.415 95.039 C 298.168 94.390,298.000 89.853,298.000 83.844 L 298.000 73.739 296.946 72.770 C 295.947 71.851,295.915 71.846,296.346 72.674 M135.089 84.416 C 134.934 85.571,134.405 86.539,133.236 87.807 C 130.916 90.324,131.201 90.565,133.600 88.115 C 135.341 86.337,135.600 85.861,135.600 84.437 C 135.600 82.349,135.367 82.340,135.089 84.416 M100.027 88.600 C 99.999 89.540,101.412 92.000,101.980 92.000 C 102.196 92.000,103.053 92.574,103.886 93.275 C 104.809 94.052,104.510 93.623,103.119 92.175 C 101.865 90.869,100.662 89.350,100.445 88.800 C 100.111 87.953,100.047 87.922,100.027 88.600 M70.973 89.784 C 70.619 90.326,69.971 90.882,69.534 91.021 C 69.097 91.160,68.830 91.363,68.940 91.473 C 69.403 91.937,70.853 91.057,71.415 89.972 C 72.151 88.547,71.864 88.425,70.973 89.784 M0.000 307.996 L 0.000 400.000 200.000 400.000 L 400.000 400.000 400.000 307.996 L 400.000 215.991 383.700 216.096 C 369.419 216.187,367.425 216.274,367.600 216.800 C 367.710 217.130,367.846 250.867,367.902 291.772 L 368.004 366.144 367.132 367.072 L 366.261 368.000 200.000 368.000 L 33.739 368.000 32.868 367.072 L 31.996 366.144 32.098 291.772 C 32.154 250.867,32.290 217.130,32.400 216.800 C 32.575 216.274,30.581 216.187,16.300 216.096 L 0.000 215.991 0.000 307.996 M68.800 236.800 C 67.977 237.623,67.858 238.871,68.400 241.000 C 68.651 241.987,68.714 241.790,68.753 239.894 C 68.797 237.743,68.887 237.535,70.100 236.796 C 71.255 236.092,71.299 236.003,70.500 236.001 C 70.005 236.001,69.240 236.360,68.800 236.800 M228.800 236.800 C 227.951 237.649,227.756 239.404,228.400 240.400 C 228.684 240.839,228.789 240.543,228.794 239.294 C 228.799 237.802,228.963 237.489,230.100 236.796 C 231.255 236.092,231.299 236.003,230.500 236.001 C 230.005 236.001,229.240 236.360,228.800 236.800 M296.800 236.800 C 295.977 237.623,295.858 238.871,296.400 241.000 C 296.651 241.987,296.714 241.790,296.753 239.894 C 296.797 237.743,296.887 237.535,298.100 236.796 C 299.255 236.092,299.299 236.003,298.500 236.001 C 298.005 236.001,297.240 236.360,296.800 236.800 M124.814 237.574 C 123.954 239.182,124.280 243.433,125.200 242.600 C 125.810 242.048,126.000 241.368,126.000 239.738 C 126.000 238.068,126.137 237.600,126.624 237.600 C 126.967 237.600,127.136 237.420,127.000 237.200 C 126.584 236.527,125.252 236.755,124.814 237.574 M38.600 237.600 C 38.330 238.036,38.673 238.800,39.138 238.800 C 39.298 238.800,39.429 238.440,39.429 238.000 C 39.429 237.146,39.007 236.942,38.600 237.600 M138.600 237.600 C 138.330 238.036,138.673 238.800,139.138 238.800 C 139.298 238.800,139.429 238.440,139.429 238.000 C 139.429 237.146,139.007 236.942,138.600 237.600 M45.200 241.200 C 45.988 241.709,46.915 241.709,46.600 241.200 C 46.464 240.980,45.958 240.803,45.476 240.806 C 44.764 240.811,44.712 240.885,45.200 241.200 M145.200 241.200 C 145.988 241.709,146.915 241.709,146.600 241.200 C 146.464 240.980,145.958 240.803,145.476 240.806 C 144.764 240.811,144.712 240.885,145.200 241.200 M122.089 245.423 C 121.101 246.114,120.858 247.306,121.776 246.954 C 122.438 246.700,123.781 244.800,123.298 244.800 C 123.122 244.800,122.578 245.080,122.089 245.423 M117.298 249.466 C 117.021 249.577,116.897 249.833,117.021 250.034 C 117.381 250.617,118.692 250.458,118.945 249.800 C 119.176 249.197,118.370 249.033,117.298 249.466 M68.184 252.191 C 68.033 253.396,68.089 255.241,68.308 256.291 C 68.676 258.057,68.709 257.892,68.753 254.100 C 68.805 249.554,68.600 248.864,68.184 252.191 M108.998 250.737 C 109.434 251.252,110.153 251.859,110.596 252.086 C 111.445 252.521,111.321 252.387,109.403 250.794 C 108.248 249.835,108.234 249.833,108.998 250.737 M296.184 252.191 C 296.033 253.396,296.089 255.241,296.308 256.291 C 296.676 258.057,296.709 257.892,296.753 254.100 C 296.805 249.554,296.600 248.864,296.184 252.191 M228.243 251.833 C 227.867 252.812,227.968 255.731,228.400 256.400 C 228.670 256.818,228.790 256.120,228.794 254.100 C 228.800 251.166,228.683 250.685,228.243 251.833 M217.200 252.000 C 216.712 252.315,216.764 252.389,217.476 252.394 C 217.958 252.397,218.464 252.220,218.600 252.000 C 218.915 251.491,217.988 251.491,217.200 252.000 M109.295 256.968 C 108.474 257.720,107.892 258.395,108.001 258.468 C 108.111 258.541,108.886 257.925,109.725 257.100 C 111.634 255.223,111.308 255.123,109.295 256.968 M275.989 258.160 C 276.575 259.716,277.706 261.600,278.054 261.600 C 278.208 261.600,278.606 261.704,278.938 261.832 C 280.080 262.270,279.195 260.562,277.342 258.750 C 275.662 257.108,275.579 257.071,275.989 258.160 M117.200 258.800 C 116.870 259.013,116.780 259.193,117.000 259.199 C 117.220 259.206,117.850 259.330,118.400 259.475 C 119.298 259.712,119.344 259.670,118.851 259.069 C 118.219 258.299,118.024 258.267,117.200 258.800 M105.170 261.100 L 104.200 262.200 105.400 261.200 C 106.060 260.650,106.675 260.155,106.767 260.100 C 106.858 260.045,106.755 260.000,106.536 260.000 C 106.318 260.000,105.703 260.495,105.170 261.100 M120.400 261.078 C 120.400 262.138,120.988 262.880,122.400 263.600 C 124.174 264.505,124.400 264.978,124.400 267.788 C 124.400 270.429,125.481 272.129,126.579 271.217 C 127.182 270.717,127.187 270.624,126.625 270.310 C 126.196 270.070,126.000 269.368,126.000 268.069 C 126.000 266.260,125.880 266.059,123.200 263.400 C 121.660 261.872,120.400 260.827,120.400 261.078 M280.401 265.153 C 280.404 266.315,281.928 268.402,282.589 268.149 C 283.513 267.794,283.337 267.276,281.800 265.826 C 280.789 264.872,280.400 264.685,280.401 265.153 M68.249 267.946 C 67.854 270.465,68.713 272.109,70.540 272.327 C 71.985 272.499,71.860 271.929,70.291 271.200 C 69.090 270.642,68.986 270.432,68.793 268.200 L 68.587 265.800 68.249 267.946 M296.249 267.946 C 295.854 270.465,296.713 272.109,298.540 272.327 C 299.985 272.499,299.860 271.929,298.291 271.200 C 297.090 270.642,296.986 270.432,296.793 268.200 L 296.587 265.800 296.249 267.946 M228.300 267.733 C 227.479 269.738,228.808 272.400,230.629 272.400 C 231.967 272.400,231.830 271.915,230.291 271.200 C 229.177 270.682,228.973 270.353,228.800 268.800 C 228.655 267.496,228.517 267.202,228.300 267.733 " stroke="none" fill="#fbf305" fill-rule="evenodd"></path><path id="path3" d="M32.870 32.926 L 32.000 33.852 32.000 108.037 C 32.000 174.533,32.065 182.314,32.623 183.111 L 33.245 184.000 200.000 184.000 L 366.755 184.000 367.377 183.111 C 367.935 182.314,368.000 174.527,368.000 107.981 L 368.000 33.739 367.074 32.870 L 366.148 32.000 199.944 32.000 L 33.739 32.000 32.870 32.926 M68.569 40.333 C 69.432 40.561,70.602 41.118,71.169 41.572 C 71.736 42.025,72.890 42.769,73.733 43.223 C 74.576 43.678,75.566 44.602,75.933 45.277 C 76.300 45.952,77.255 47.167,78.056 47.977 C 80.349 50.297,80.479 51.592,80.298 70.298 C 80.117 89.020,80.194 88.546,76.712 92.436 C 74.689 94.696,73.906 95.267,71.850 95.984 C 70.503 96.455,68.515 97.235,67.434 97.720 C 65.549 98.564,64.971 98.600,53.438 98.600 L 41.407 98.600 40.604 97.000 C 39.826 95.452,39.796 94.529,39.692 68.631 L 39.583 41.861 40.692 40.693 L 41.800 39.524 54.400 39.722 C 61.330 39.830,67.706 40.105,68.569 40.333 M103.786 40.841 L 105.200 42.083 105.230 62.941 C 105.264 86.224,105.129 85.060,108.211 88.553 C 110.838 91.531,112.283 92.027,119.134 92.302 C 125.491 92.557,129.725 91.962,130.870 90.653 C 135.911 84.886,135.600 86.783,135.600 61.820 L 135.600 41.750 136.722 40.675 C 138.115 39.340,138.073 39.338,139.786 40.841 L 141.200 42.083 141.200 63.783 L 141.200 85.483 140.210 88.241 C 139.603 89.931,138.774 91.387,138.070 92.000 C 137.437 92.550,136.607 93.488,136.224 94.085 C 135.791 94.760,134.711 95.475,133.363 95.980 C 132.172 96.425,130.107 97.340,128.774 98.013 C 124.643 100.099,115.752 100.102,112.827 98.019 C 112.211 97.580,110.377 96.748,108.753 96.170 C 107.017 95.552,105.223 94.578,104.400 93.807 C 103.630 93.085,102.597 92.288,102.104 92.035 C 99.785 90.847,99.811 91.129,99.682 65.441 L 99.564 41.881 100.657 40.741 C 102.014 39.324,102.059 39.325,103.786 40.841 M199.342 40.581 L 200.400 41.562 200.398 67.881 C 200.395 94.746,200.319 96.224,198.828 98.065 C 198.083 98.985,198.069 98.986,197.224 98.221 C 194.861 96.083,194.801 95.524,194.794 75.849 C 194.791 65.922,194.641 57.569,194.462 57.286 C 194.013 56.579,193.021 57.039,192.370 58.255 C 192.072 58.812,191.371 59.504,190.813 59.793 C 189.307 60.572,188.579 61.567,187.829 63.869 C 187.459 65.007,186.866 66.177,186.512 66.469 C 186.158 66.761,185.265 67.940,184.529 69.089 C 182.903 71.626,182.387 71.903,179.699 71.690 C 177.563 71.520,176.000 70.354,176.000 68.930 C 176.000 68.119,174.573 65.441,173.798 64.798 C 173.435 64.497,172.721 63.429,172.212 62.425 C 171.036 60.106,169.891 59.054,168.889 59.372 C 167.304 59.875,167.200 61.001,167.200 77.611 C 167.200 96.208,167.226 96.049,164.007 97.465 C 160.346 99.076,160.400 99.513,160.400 68.229 C 160.400 37.917,160.130 40.100,163.878 40.056 C 166.601 40.023,167.302 40.521,168.584 43.400 C 169.073 44.500,169.939 45.951,170.508 46.624 C 171.077 47.297,171.985 48.848,172.527 50.072 C 173.068 51.296,173.716 52.424,173.966 52.579 C 174.217 52.734,175.119 54.248,175.972 55.944 C 177.383 58.750,177.705 59.112,179.562 59.982 L 181.602 60.938 182.566 60.032 C 183.096 59.534,183.923 58.075,184.404 56.790 C 184.884 55.505,185.647 54.127,186.099 53.727 C 186.551 53.327,187.436 51.873,188.066 50.496 C 188.696 49.118,189.794 47.227,190.506 46.292 C 191.218 45.357,192.139 43.836,192.554 42.912 C 193.214 41.440,193.587 41.133,195.554 40.447 C 198.410 39.450,198.110 39.440,199.342 40.581 M259.342 40.581 L 260.400 41.562 260.398 67.881 C 260.395 94.746,260.319 96.224,258.828 98.065 C 258.083 98.985,258.069 98.986,257.224 98.221 C 254.861 96.083,254.801 95.524,254.794 75.849 C 254.791 65.922,254.641 57.569,254.462 57.286 C 254.013 56.579,253.021 57.039,252.370 58.255 C 252.072 58.812,251.371 59.504,250.813 59.793 C 249.307 60.572,248.579 61.567,247.829 63.869 C 247.459 65.007,246.866 66.177,246.512 66.469 C 246.158 66.761,245.265 67.940,244.529 69.089 C 242.903 71.626,242.387 71.903,239.699 71.690 C 237.563 71.520,236.000 70.354,236.000 68.930 C 236.000 68.119,234.573 65.441,233.798 64.798 C 233.435 64.497,232.721 63.429,232.212 62.425 C 231.036 60.106,229.891 59.054,228.889 59.372 C 227.304 59.875,227.200 61.001,227.200 77.611 C 227.200 96.208,227.226 96.049,224.007 97.465 C 220.346 99.076,220.400 99.513,220.400 68.229 C 220.400 37.917,220.130 40.100,223.878 40.056 C 226.601 40.023,227.302 40.521,228.584 43.400 C 229.073 44.500,229.939 45.951,230.508 46.624 C 231.077 47.297,231.985 48.848,232.527 50.072 C 233.068 51.296,233.716 52.424,233.966 52.579 C 234.217 52.734,235.119 54.248,235.972 55.944 C 237.383 58.750,237.705 59.112,239.562 59.982 L 241.602 60.938 242.566 60.032 C 243.096 59.534,243.923 58.075,244.404 56.790 C 244.884 55.505,245.647 54.127,246.099 53.727 C 246.551 53.327,247.436 51.873,248.066 50.496 C 248.696 49.118,249.794 47.227,250.506 46.292 C 251.218 45.357,252.139 43.836,252.554 42.912 C 253.214 41.440,253.587 41.133,255.554 40.447 C 258.410 39.450,258.110 39.440,259.342 40.581 M319.786 40.841 L 321.200 42.083 321.200 45.853 C 321.200 50.115,320.093 53.053,317.602 55.400 C 316.902 56.060,316.051 57.140,315.711 57.800 C 315.121 58.947,314.219 60.083,310.551 64.303 C 309.644 65.346,308.500 67.010,308.009 68.000 C 307.518 68.990,306.370 70.572,305.458 71.516 L 303.800 73.232 303.594 84.716 C 303.343 98.778,303.089 99.679,300.018 97.413 C 299.282 96.871,298.524 96.524,298.332 96.642 C 297.204 97.339,296.800 93.937,296.795 83.713 C 296.789 71.358,296.977 71.902,290.254 64.728 C 289.404 63.821,288.466 62.497,288.169 61.787 C 287.872 61.077,287.103 60.053,286.460 59.512 C 285.817 58.971,284.844 57.824,284.297 56.964 C 283.751 56.104,282.897 55.040,282.400 54.600 C 279.206 51.772,278.970 40.000,282.108 40.000 C 283.605 40.000,284.800 41.705,284.800 43.840 C 284.800 46.373,286.750 50.250,289.846 53.874 C 290.822 55.017,291.886 56.587,292.211 57.364 C 292.535 58.141,293.353 59.185,294.027 59.683 C 294.702 60.182,295.733 61.472,296.320 62.549 C 298.338 66.257,301.898 66.789,303.793 63.666 C 304.237 62.934,305.365 61.444,306.300 60.355 C 307.235 59.265,308.000 58.171,308.000 57.923 C 308.000 57.675,308.787 56.736,309.749 55.836 C 312.442 53.317,315.600 46.971,315.600 44.078 C 315.600 40.252,317.469 38.807,319.786 40.841 M48.422 45.335 C 45.260 46.531,45.400 45.423,45.400 69.307 L 45.400 90.555 46.800 91.377 C 49.375 92.890,66.393 92.687,69.381 91.107 C 70.727 90.396,73.177 87.062,74.058 84.743 C 75.157 81.851,75.198 54.302,74.105 53.095 C 73.722 52.672,72.957 51.488,72.405 50.463 C 71.684 49.126,70.902 48.349,69.637 47.711 C 68.668 47.222,67.442 46.416,66.914 45.919 C 65.726 44.803,51.054 44.340,48.422 45.335 M32.623 216.889 C 32.065 217.686,32.000 225.473,32.000 292.019 L 32.000 366.261 32.926 367.130 L 33.852 368.000 200.056 368.000 L 366.261 368.000 367.130 367.074 L 368.000 366.148 368.000 291.963 C 368.000 225.467,367.935 217.686,367.377 216.889 L 366.755 216.000 200.000 216.000 L 33.245 216.000 32.623 216.889 M59.641 236.516 C 62.013 238.115,60.166 240.400,56.501 240.400 C 55.522 240.400,54.109 240.691,53.360 241.046 L 52.000 241.691 52.000 255.976 L 52.000 270.261 51.015 271.186 C 50.068 272.076,49.095 271.920,47.913 270.691 C 47.865 270.641,47.730 264.144,47.613 256.253 L 47.400 241.907 44.800 241.122 C 41.805 240.217,38.712 238.735,38.501 238.104 C 37.679 235.637,56.265 234.241,59.641 236.516 M94.519 236.509 C 95.895 237.412,95.899 238.586,94.528 239.484 C 93.619 240.079,92.073 240.227,84.428 240.447 C 78.459 240.619,74.790 240.898,73.600 241.271 L 71.800 241.835 71.800 246.018 L 71.800 250.200 74.000 250.937 C 75.210 251.342,77.550 251.773,79.200 251.895 C 82.382 252.129,84.000 252.839,84.000 254.000 C 84.000 255.161,82.382 255.871,79.200 256.105 C 77.550 256.227,75.210 256.658,74.000 257.063 L 71.800 257.800 71.800 262.000 L 71.800 266.200 74.000 266.957 C 75.764 267.564,77.905 267.767,84.800 267.978 C 93.695 268.252,95.200 268.539,95.200 269.965 C 95.200 271.902,92.601 272.359,81.600 272.355 C 76.650 272.354,71.955 272.365,71.166 272.381 C 68.214 272.440,68.290 272.930,68.290 253.983 C 68.290 241.900,68.419 237.021,68.747 236.693 C 70.037 235.403,92.586 235.242,94.519 236.509 M159.641 236.516 C 162.013 238.115,160.166 240.400,156.501 240.400 C 155.522 240.400,154.109 240.691,153.360 241.046 L 152.000 241.691 152.000 255.976 L 152.000 270.261 151.015 271.186 C 150.068 272.076,149.095 271.920,147.913 270.691 C 147.865 270.641,147.730 264.144,147.613 256.253 L 147.400 241.907 144.800 241.122 C 141.805 240.217,138.712 238.735,138.501 238.104 C 137.679 235.637,156.265 234.241,159.641 236.516 M254.519 236.509 C 255.895 237.412,255.899 238.586,254.528 239.484 C 253.619 240.079,252.073 240.227,244.428 240.447 C 238.459 240.619,234.790 240.898,233.600 241.271 L 231.800 241.835 231.800 246.018 L 231.800 250.200 234.000 250.937 C 235.210 251.342,237.550 251.773,239.200 251.895 C 242.382 252.129,244.000 252.839,244.000 254.000 C 244.000 255.161,242.382 255.871,239.200 256.105 C 237.550 256.227,235.210 256.658,234.000 257.063 L 231.800 257.800 231.800 262.000 L 231.800 266.200 234.000 266.957 C 235.764 267.564,237.905 267.767,244.800 267.978 C 253.695 268.252,255.200 268.539,255.200 269.965 C 255.200 271.902,252.601 272.359,241.600 272.355 C 236.650 272.354,231.955 272.365,231.166 272.381 C 228.214 272.440,228.290 272.930,228.290 253.983 C 228.290 241.900,228.419 237.021,228.747 236.693 C 230.037 235.403,252.586 235.242,254.519 236.509 M282.037 236.004 C 282.827 236.223,284.030 236.987,284.710 237.701 C 285.390 238.416,286.516 239.540,287.212 240.200 C 288.399 241.326,288.461 241.524,288.220 243.400 C 287.902 245.870,287.902 246.122,288.217 248.600 C 288.463 250.537,286.936 253.200,285.579 253.200 C 285.400 253.200,285.133 253.580,284.986 254.044 C 284.839 254.509,284.100 255.572,283.345 256.408 L 281.972 257.928 283.186 259.842 C 283.854 260.895,284.400 262.159,284.400 262.651 C 284.400 263.187,284.878 263.886,285.591 264.393 C 286.679 265.168,288.000 268.168,288.000 269.863 C 288.000 271.894,284.602 271.662,284.152 269.600 C 283.713 267.594,283.665 267.537,282.808 267.996 C 281.890 268.487,280.404 266.587,280.401 264.919 C 280.399 263.481,279.528 261.997,278.541 261.749 C 277.925 261.595,277.265 260.795,276.555 259.344 C 275.033 256.233,271.637 255.373,268.637 257.339 L 267.600 258.018 267.600 264.147 C 267.600 269.768,267.534 270.336,266.800 271.000 C 264.964 272.661,264.400 271.077,264.400 264.264 C 264.400 259.986,264.217 257.599,263.764 255.986 C 263.183 253.914,263.183 253.558,263.764 251.845 C 264.616 249.335,264.614 242.864,263.759 239.987 L 263.118 237.829 264.365 236.714 L 265.613 235.600 273.106 235.602 C 277.228 235.603,281.247 235.784,282.037 236.004 M322.519 236.509 C 323.895 237.412,323.899 238.586,322.528 239.484 C 321.619 240.079,320.073 240.227,312.428 240.447 C 306.459 240.619,302.790 240.898,301.600 241.271 L 299.800 241.835 299.800 246.018 L 299.800 250.200 302.000 250.937 C 303.210 251.342,305.550 251.773,307.200 251.895 C 310.382 252.129,312.000 252.839,312.000 254.000 C 312.000 255.161,310.382 255.871,307.200 256.105 C 305.550 256.227,303.210 256.658,302.000 257.063 L 299.800 257.800 299.800 262.000 L 299.800 266.200 302.000 266.957 C 303.764 267.564,305.905 267.767,312.800 267.978 C 321.695 268.252,323.200 268.539,323.200 269.965 C 323.200 271.902,320.601 272.359,309.600 272.355 C 304.650 272.354,299.955 272.365,299.166 272.381 C 296.214 272.440,296.290 272.930,296.290 253.983 C 296.290 241.900,296.419 237.021,296.747 236.693 C 298.037 235.403,320.586 235.242,322.519 236.509 M199.342 236.981 C 200.399 237.961,200.400 237.969,200.400 244.181 C 200.400 251.642,200.409 251.659,204.857 252.410 C 208.272 252.987,215.427 252.702,217.654 251.899 C 220.424 250.900,220.400 250.970,220.400 244.013 C 220.400 236.842,220.979 235.201,222.850 237.072 C 223.652 237.875,223.672 238.284,223.672 254.000 C 223.672 269.716,223.652 270.125,222.850 270.928 C 221.109 272.668,220.535 271.204,220.319 264.482 C 220.041 255.833,220.229 255.999,210.674 256.002 C 200.311 256.006,200.400 255.932,200.400 264.438 C 200.400 269.980,200.389 270.048,199.342 271.019 C 198.027 272.238,197.801 272.238,196.582 271.018 L 195.600 270.036 195.600 254.000 L 195.600 237.964 196.582 236.982 C 197.801 235.762,198.027 235.762,199.342 236.981 M107.186 237.574 C 107.414 237.999,107.600 239.378,107.600 240.637 C 107.600 242.826,107.677 243.000,109.351 244.564 C 110.314 245.464,111.307 246.599,111.558 247.086 C 111.820 247.596,112.648 248.144,113.507 248.376 C 114.328 248.599,115.371 249.041,115.825 249.360 C 116.364 249.739,116.849 249.814,117.225 249.576 C 117.541 249.376,118.148 249.209,118.574 249.206 C 119.573 249.198,121.200 247.670,121.200 246.739 C 121.200 246.343,121.695 245.712,122.300 245.337 C 124.103 244.220,124.400 243.593,124.400 240.897 C 124.400 237.374,125.571 235.731,127.036 237.196 C 127.286 237.446,127.897 237.459,128.687 237.232 C 131.451 236.440,132.365 240.990,129.904 243.290 C 129.191 243.956,128.426 245.063,128.204 245.750 C 127.912 246.655,127.326 247.220,126.083 247.797 C 125.043 248.280,124.280 248.937,124.148 249.466 C 124.027 249.945,123.225 250.989,122.365 251.785 C 120.435 253.570,120.401 254.401,122.200 255.773 C 122.971 256.361,123.876 257.373,124.212 258.023 C 124.548 258.673,125.534 259.653,126.404 260.202 C 127.385 260.822,128.085 261.618,128.249 262.300 C 128.394 262.905,129.117 263.964,129.856 264.654 C 132.363 266.993,131.538 271.814,128.795 270.858 C 127.669 270.466,127.351 270.501,126.696 271.094 C 125.496 272.180,124.400 270.602,124.400 267.788 C 124.400 264.964,124.177 264.506,122.338 263.568 C 121.205 262.991,120.709 262.446,120.539 261.594 C 119.866 258.228,113.334 258.201,111.621 261.558 C 111.148 262.486,110.357 263.287,109.606 263.598 C 107.995 264.265,107.600 265.078,107.600 267.729 C 107.600 269.284,107.380 270.183,106.834 270.856 L 106.068 271.800 104.993 270.800 C 102.744 268.706,104.255 260.306,106.950 259.921 C 107.480 259.846,107.848 259.460,107.928 258.896 C 107.999 258.399,108.854 257.326,109.828 256.512 C 112.112 254.603,112.201 253.353,110.162 251.798 C 109.371 251.195,108.543 250.182,108.322 249.548 C 108.060 248.796,107.551 248.308,106.860 248.145 C 103.313 247.308,102.561 236.800,106.048 236.800 C 106.446 236.800,106.958 237.148,107.186 237.574 M269.200 241.101 L 267.800 241.800 267.800 246.000 L 267.800 250.200 269.200 250.899 C 271.034 251.816,281.603 251.939,282.488 251.055 C 284.005 249.538,284.614 246.142,283.799 243.745 C 282.647 240.354,282.749 240.400,276.271 240.401 C 271.673 240.401,270.335 240.534,269.200 241.101 " stroke="none" fill="#fbf9fb" fill-rule="evenodd"></path></g></svg>